<?xml version="1.0" standalone="no"?><!DOCTYPE svg PUBLIC "-//W3C//DTD SVG 1.1//EN" "http://www.w3.org/Graphics/SVG/1.1/DTD/svg11.dtd"><svg t="1620715163768" class="icon" viewBox="0 0 1024 1024" version="1.1" xmlns="http://www.w3.org/2000/svg" p-id="1909" xmlns:xlink="http://www.w3.org/1999/xlink" width="200" height="200"><defs><style type="text/css"></style></defs><path d="M168.418 1023.188H132.506c-11.402 0-20.646-9.244-20.646-20.646v-44.248l38.602-18 38.602 18v44.248c0 11.404-9.244 20.646-20.646 20.646z" fill="#C6D0DA" p-id="1910"></path><path d="M111.862 958.296h77.202v-37.162l-38.602-18-38.6 18z" fill="#A0AAB7" p-id="1911"></path><path d="M891.494 1023.188h-35.912c-11.402 0-20.646-9.244-20.646-20.646v-44.248l38.6-18 38.602 18v44.248c0 11.404-9.242 20.646-20.644 20.646z" fill="#C6D0DA" p-id="1912"></path><path d="M834.936 958.296h77.202v-37.162l-38.6-18-38.602 18z" fill="#A0AAB7" p-id="1913"></path><path d="M101.104 535.026h821.792c11.4 0 20.642-27.24 20.644-38.64V21.456c0-11.402-9.244-20.646-20.644-20.646H101.104c-11.402 0-20.644 9.244-20.644 20.646V496.38c0 11.402 9.242 38.646 20.644 38.646z" fill="#808B95" p-id="1914"></path><path d="M922.896 517.026H101.104c-11.402 0-20.644-9.244-20.644-20.646v37.162c0 11.402 9.244 20.646 20.644 20.646h125.228L135.5 633.636a14.998 14.998 0 0 0 9.882 26.29c3.506 0 7.024-1.22 9.87-3.708l116.65-102.03H752.1l116.652 102.03a14.942 14.942 0 0 0 9.868 3.708 15 15 0 0 0 9.882-26.29l-90.834-79.448h125.228c11.402 0 20.646-9.242 20.646-20.646V496.38c0 11.402-9.244 20.646-20.646 20.646z" fill="#5E6B75" p-id="1915"></path><path d="M974.942 755.206l-462.942-18-462.942 18v145.282c0 11.402 9.244 20.646 20.646 20.646H954.3c11.402 0 20.646-9.244 20.646-20.646v-145.282z" fill="#ECB85E" p-id="1916"></path><path d="M49.058 718.046v37.16h925.884v-37.16l-462.942-18z" fill="#EAA949" p-id="1917"></path><path d="M20.646 698.884h982.71c11.402 0 20.646-27.244 20.646-38.646v-5.618c0-11.402-9.244-20.646-20.646-20.646H20.646C9.244 633.976 0 643.218 0 654.62v5.618c0 11.402 9.244 38.646 20.646 38.646z" fill="#CF8151" p-id="1918"></path><path d="M873.538 448.344V79.816a10.32 10.32 0 0 0-10.322-10.322H160.786a10.322 10.322 0 0 0-10.322 10.322v368.528l361.538 18z" fill="#9EC8FC" p-id="1919"></path><path d="M160.786 485.504h702.43a10.322 10.322 0 0 0 10.322-10.322v-26.838H150.462v26.838a10.322 10.322 0 0 0 10.324 10.322z" fill="#80B6FC" p-id="1920"></path><path d="M1003.354 680.884H20.646C9.244 680.884 0 671.64 0 660.238V697.4c0 11.402 9.244 20.646 20.646 20.646h982.71c11.402 0 20.646-9.244 20.646-20.646v-37.162c-0.002 11.402-9.246 20.646-20.648 20.646z" fill="#BD6E45" p-id="1921"></path></svg>