<?xml version="1.0" standalone="no"?><!DOCTYPE svg PUBLIC "-//W3C//DTD SVG 1.1//EN" "http://www.w3.org/Graphics/SVG/1.1/DTD/svg11.dtd"><svg t="1651035596760" class="icon" viewBox="0 0 1024 1024" version="1.1" xmlns="http://www.w3.org/2000/svg" p-id="26457" xmlns:xlink="http://www.w3.org/1999/xlink" width="32" height="32"><defs><style type="text/css">@font-face { font-family: feedback-iconfont; src: url("//at.alicdn.com/t/font_1031158_u69w8yhxdu.woff2?t=1630033759944") format("woff2"), url("//at.alicdn.com/t/font_1031158_u69w8yhxdu.woff?t=1630033759944") format("woff"), url("//at.alicdn.com/t/font_1031158_u69w8yhxdu.ttf?t=1630033759944") format("truetype"); }
</style></defs><path d="M78.750788 19.831524C78.750788 10.563218 86.479475 4.384347 94.208162 4.384347h834.229134c7.728687 0 15.447177 6.178871 15.447177 15.447177v15.457374c0 9.268306-7.71849 15.447177-15.447177 15.447177H94.208162C86.479475 50.736075 78.750788 44.557204 78.750788 35.288898V19.831524z m0 973.274122c0-9.268306 7.728687-15.457373 15.457374-15.457374h834.229134c7.728687 0 15.447177 6.178871 15.447177 15.457374v15.447177c0 9.268306-7.71849 15.447177-15.447177 15.447177H94.208162c-7.728687 0-15.457373-6.168675-15.457374-15.447177V993.105646z" fill="#FE9600" p-id="26458"></path><path d="M579.300505 514.447078l217.820491-196.20464c12.357742-10.818122 23.165668-33.98379 23.165668-50.980783V50.980783H202.348598v216.280872c0 16.996993 10.818122 40.162661 23.165667 50.980783L443.344953 514.447078 225.524462 710.641521c-12.357742 10.818122-23.165668 33.98379-23.165668 50.980783v216.280872H820.29686V761.622304c0-16.996993-10.818122-40.162661-23.165667-50.980783L579.300505 514.447078z" fill="#FFD599" p-id="26459"></path><path d="M250.72936 882.783232l108.140437-30.894354s83.424953-15.457373 154.481967-15.457373 139.03479 15.457373 139.034791 15.457373l123.597809 30.894354v61.798905H250.72936V882.783232z m0-664.289794h525.2652v46.341532c0 9.268306-4.639251 20.086428-12.357742 26.265299L528.798941 496.563019h-30.884158L263.087102 291.100269c-6.168675-6.178871-12.357742-16.996993-12.357742-26.265299v-46.341532z m247.185423 308.963935h15.447177v15.457374h-15.447177v-15.457374z m30.884158 30.904551h15.457374v15.447177h-15.457374v-15.447177z m-46.341531 30.894354h15.457373v15.457373h-15.457373v-15.457373z m46.341531 46.351728h15.457374v15.447177h-15.457374v-15.447177z m-61.788708 46.351727h15.457373v15.447177h-15.457373v-15.447177z m77.246082 46.341532h15.457373v15.457373h-15.457373v-15.457373z m-46.341532 61.788708h15.447177v15.457373h-15.447177v-15.457373z" fill="#FE9600" p-id="26460"></path></svg>